<svg xmlns="http://www.w3.org/2000/svg" viewBox="0 0 1024 1024" width="100%" height="100%" preserveAspectRatio="xMidYMid meet" style="transform:translate3d(0px, 0px, 0px)" xmlns:v="https://vecta.io/nano"><defs><clipPath id="A"><path d="M0 0h1024v1024H0z"/></clipPath><mask id="B" mask-type="alpha"><path fill="#ffc928" fill-opacity="1" d="M165.794 69.94c.172 2.88 4.434 3.514 5.643 1.44 25.918-34.893 97.047-131.397 183.192-110.771 27.525 6.798 41.342 37.09 31.607 60.123-15.322 37.371-106.717 103.524-150.838 187.075-6.969 13.532-65.896 165.321-172.608 213.278s-295.072 50.122-359.774-158.057c-33.559-107.573-18.239-133.83-53.752-277.739-7.483-28.449-33.382-149.152-38.618-184.625-6.617-47.393 59.148-66.445 77.34-26.191 8.463 18.831 74.089 201.615 76.103 209.274 4.836 13.936 23.436 9.043 21.365-3.281-18.295-149.609-39.873-287.239-39.637-335.265s72.564-57.692 83.442-9.665c7.943 32.422 55.305 292.539 57.78 304.172s19.866 8.814 21.365-3.279c.404-11.805 2.337-291.324 8.736-351.5 5.938-53.035 91.107-56.136 94.727 4.329 3.335 48.257 7.216 343.21 7.618 353.633-.232 14.684 17.619 15.837 19.348.174 1.096-11.401 49.268-279.686 56.355-306.117 12.328-46.527 89.032-46.229 89.37 15.099-.067 84.247-39.598 318.671-18.764 417.893z" opacity="1" transform="matrix(.863396 -.504528 .504528 .863396 567.87657 502.202219)"/></mask></defs><g clip-path="url(#A)"><g fill="#afbdc5"><path d="M84.777 650.022c24.8 73.6 62.4 119.199 124 160.8 11.2 8 4.8 24-8 18.399-57.6-23.199-121.6-74.399-136.8-176-2.4-13.599 16.8-16 20.8-3.199zm48-44c24.8 73.6 62.4 119.199 124 160.8 11.2 8 4.8 24-8 18.399-57.6-23.199-121.6-74.399-136.8-176-1.6-13.599 16.8-16 20.8-3.199zm615.235-329.585c-19.2-75.2-54.4-123.2-112.8-168-11.2-8-3.2-24 9.6-18.4 56 26.4 116.8 82.4 124.8 184.8.8 13.6-18.4 15.2-21.6 1.6zm52.5-37.9c-19.2-75.2-54.4-123.2-112.8-168-11.2-8-3.2-24 9.6-18.4 56 26.4 116.8 82.4 124.8 184.8.8 12.8-17.6 14.4-21.6 1.6z"/></g><g mask="url(#B)"><g transform="matrix(.863396 -.504528 .504528 .863396 -238.995911 337.96936)"><g transform="translate(613.79 548.887)"><path fill="#ffc928" d="M165.794 69.94c.172 2.88 4.434 3.514 5.643 1.44 25.918-34.893 97.047-131.397 183.192-110.771 27.525 6.798 41.342 37.09 31.607 60.123-15.322 37.371-106.717 103.524-150.838 187.075-6.969 13.532-65.896 165.321-172.608 213.278s-295.072 50.122-359.774-158.057c-33.559-107.573-18.239-133.83-53.752-277.739-7.483-28.449-33.382-149.152-38.618-184.625-6.617-47.393 59.148-66.445 77.34-26.191 8.463 18.831 74.089 201.615 76.103 209.274 4.836 13.936 23.436 9.043 21.365-3.281-18.295-149.609-39.873-287.239-39.637-335.265s72.564-57.692 83.442-9.665c7.943 32.422 55.305 292.539 57.78 304.172s19.866 8.814 21.365-3.279c.404-11.805 2.337-291.324 8.736-351.5 5.938-53.035 91.107-56.136 94.727 4.329 3.335 48.257 7.216 343.21 7.618 353.633-.232 14.684 17.619 15.837 19.348.174 1.096-11.401 49.268-279.686 56.355-306.117 12.328-46.527 89.032-46.229 89.37 15.099-.067 84.247-39.598 318.671-18.764 417.893z"/></g><g transform="translate(787.904 671.257)"><path fill="#f9a700" d="M-23.636-59.514c-126.402 19.794-222.463 97.12-212.46 241.891.977 12.611 18.944 11.979 19.464-1.611 1.217-68.757 34.226-174.537 191.265-213.504 8.522 12.382 29.195 8.7 35.934-1.262 45.499-60.517 84.548-109.978 150.656-112.159 25.51-.86 44.856 21.542 29.708 50.679l20.211 14.571 34.555-35.411c.403-.691-63.392-78.669-63.392-78.669L70.01-166.036-23.636-59.514z"/></g><g transform="translate(724.795 320.495)"><path fill="#f9a700" d="M-82.193 182.283c12.496.808 25.223-1.955 27.124-14.739l51.803-285.616c7.26-34.666 44.749-43.357 60.525-21.185 8.521 12.382 24.934-3.049 20.328-9.441s-11.456-27.988-48.944-30.411c-67.144-3.982-70.608 71.8-76.544 113.722l-34.292 247.67z"/></g><g transform="translate(574.53 288.235)"><path fill="#f9a700" d="M-62.357 207.905c16.585-1.437 29.599-3.106 28.911-25.737-.459-15.088 6.542-295.354 6.89-322.938.062-39.791 51.314-45.083 60.466-14.734 4.145 13.533 28.447 3.632 25.569-7.31s-15.37-45.091-57.465-42.792-56.897 26.079-58.799 38.863c-2.593 12.38-5.572 374.648-5.572 374.648z"/></g><g transform="translate(397.557 338.863)"><path fill="#f9a700" d="M-4.073 201.949c15.549-7.599 24.705-10.591 22.232-33.338l-37.165-301.407c-4.43-36.855 36.802-42.435 46.187-26.77 8.693 15.261 28.792-1.725 20.962-13.704s-22.167-28.679-45.604-26.609-47.223 20.61-52.522 36.042c-5.991 15.03 45.91 365.786 45.91 365.786z"/></g><g transform="translate(385.033 648.178)"><path fill="#f9a700" d="M174.993 338.997C32.01 326.888-27.407 236.644-50.662 152.683c-26.42-95.998-23.187-168.21-42.183-229.31-6.159-21.192-47.6-200.979-49.036-228.677-.688-22.631 36.571-38.866 50.1-9.669 8.866 18.141 27.871 1.443 21.423-9.729s-21.014-35.417-53.896-31.448c-32.478 3.279-50.506 32.587-50.623 45.487S-64.152 283.745-64.152 283.745l138.829 76.374 99.45-2.177.866-18.945z"/></g><g transform="translate(696.385 780.703)"><path fill="#b55e18" d="M305.719-254.331c-1.786 10.999-6.914 29.31-23.558 48.311-62.661 70.881-116.334 102.546-158.44 193.756C42.16 162.44-89.26 254.331-303.467 162.688c-21.651-8.929-24.993 9.498-13.822 14.164 5.24 2.131 162.499 59.62 162.499 59.62l198.501-37.005c.806-1.381 284.749-411.816 284.749-411.816l-22.741-41.982z"/></g><g transform="translate(792.311 382.469)"><path fill="#b55e18" d="M-32.884-233.884c8.176 6.623 23.089 25.513 21.184 60.524S-36.603 56.633-37.297 78.458s-12.05 125.419 3.147 167.631c5.239 13.245 17.736 2.939 17.736 2.939l13.19-21.017 52.571-458.373-54.414-28.972-27.817 25.45z"/></g><g transform="translate(603.18 288.557)"><path fill="#b55e18" d="M39.422 214.221c-16.757-1.442-29.656-1.558-30.46-22.403.232-14.684.135-168.495-5.948-351.732-.862-14.396-11.513-32.653-26.773-35.073-15.663-1.73-9.153-19.234-.919-19.06s59.428 1.331 59.882 60.874l4.218 367.394z"/></g><g transform="translate(448.071 312.035)"><path fill="#b55e18" d="M64.102 184.105c-14.8 1.553-30.809 5.18-34.664-18.373L-19.65-123.179c-2.244-15.203-14.277-34.265-32.243-33.633-12.209.286-10.824-21.135-2.877-22.056S.398-189.285 7.419-153.697s56.683 337.802 56.683 337.802z"/></g><g transform="translate(310.173 407.209)"><path fill="#b55e18" d="M83.311 133.603c-14.627 4.433-27.526 4.317-35.01-13.017S-18.995-64.098-22.564-75.442s-19.632-34.613-45.892-27.705c-9.847 2.59-14.855-14.225-5.008-16.815 10.251-3.281 64.267-18.074 77.91 20.452s78.865 233.113 78.865 233.113z"/></g></g></g></g></svg>