<svg baseProfile="tiny" version="1.2" viewBox="0 0 1280 1067">
  <path fill="#1b439a" d="M546.89 261.81Q430.84 465.25 273.11 742.02q-9.52 16.7-14.35 22.23-8.89 10.16-20.3 16.93c-50.22 29.79-113.61.82-124.41-56.21q-4.01-21.2 2.88-41.7 2.46-7.29 11.04-22.34Q416.48 154.99 479.08 45.1c9.63-16.91 23.89-28.84 41.3-37.17 32.3-15.45 70.07-7.04 92.88 20.53q7.69 9.3 13.46 21.68 3.43 7.37 5.8 12.07 171.27 339.46 307.85 610.41c16.61 32.96 8.89 74.6-16.68 100.95q-18.13 18.69-43.15 23.71c-34.22 6.86-68.18-10.26-83.91-41.41Q676.97 518.83 547.4 261.82a.29.29 0 0 0-.51-.01Zm455.25-16.58q-35.79 47.34-77.69 102.73-3.93 5.19-9.18 9.29c-23.77 18.55-56.06 17.62-78.31-3.21-19.77-18.52-24.01-48.75-10.73-72.33q1.75-3.1 12.61-17.46Q1003.9 46.12 1008.93 39.26q8.96-12.21 14.72-17.02c33.64-28.12 85.52-11.25 96.08 31.96q1.71 7.03 1.54 25.25-.11 11.55-.05 653.05c0 41.43-42.89 70.76-81.68 54.77-18.59-7.66-32.14-23.85-36.03-43.74q-1.06-5.43-1.06-17.62 0-193.76.01-480.58a.18.17-26.9 0 0-.32-.1Z"/>
  <path fill="#dd2125" d="m961.04 518.67-49 9.4a20.79 20.79 0 0 1-22.19-10.49l-37.31-68.69a20.79 20.79 0 0 1 16.34-30.62l82.38-7.67a20.79 20.79 0 0 1 22.68 19.48l3.94 66.95a20.79 20.79 0 0 1-16.84 21.64Zm-379.93 19.44q22.77-21.87 36.11-32.17c7.95-6.14 18.09-5.79 25.59.87q2.25 1.99 5.07 6.61 17.49 28.59 37.01 60.35 4.35 7.09 4.99 10.96c1.59 9.76-3.72 19.62-13.35 23.02q-15.87 5.61-37.91 12.84c-4.58 1.5-10.48 4.2-14.85 6.7q-15.67 8.94-28.63 19.86-22.33 18.81-42.86 41.64-29.21 32.46-56.68 69.29-1.94 2.61-5.86 4.99c-8.32 5.05-17.82 2.6-22.12-6.27-1.49-3.06-1.32-8.05-.86-12.08q3.86-33.51 16.69-65.77c14.69-36.92 35.73-70.59 60.64-100.61q19.13-23.05 37.02-40.23Z"/>
  <path fill="#1b439a" d="M291.95 988.17a.35.35 0 0 1 .35-.35h57.05a.51.51 0 0 1 .51.51v56.66a1.27 1.27 0 0 1-.45.97c-20.02 16.86-46.16 24.27-71.95 19.34-32.88-6.29-53.69-32.45-54.3-65.74-.7-38.44 28.19-68.88 66.58-70.27 20.88-.76 39.39 4.09 54.88 17.75a.67.66 40.9 0 1 .07.92l-17.71 21.38a.59.59 0 0 1-.84.06c-11.71-10.32-26.06-15.14-41.12-12.41q-9.85 1.78-17.76 9.08c-24.24 22.36-14.96 68.33 20.19 73.44q17.66 2.56 33.41-6.81a1.1 1.09-15.5 0 0 .54-.94v-18.12a.47.47 0 0 0-.47-.47H292.5a.55.55 0 0 1-.55-.55v-24.45ZM57.51 930.5h26.42a.46.46 0 0 1 .42.28l56.63 133.04a.46.46 0 0 1-.43.64h-29.41a.46.46 0 0 1-.42-.28l-12.44-29.22a.46.46 0 0 0-.42-.28H42.82a.46.46 0 0 0-.42.28l-12.44 29.22a.46.46 0 0 1-.42.28H.87a.46.46 0 0 1-.43-.64l56.65-133.04a.46.46 0 0 1 .42-.28Zm-4.53 77.71a.34.34 0 0 0 .31.47h34.1a.34.34 0 0 0 .31-.47l-17.05-41.63a.34.34 0 0 0-.62 0l-17.05 41.63Zm389.97 56.16a.36.36 0 0 1-.33-.5l56.56-132.78a.85.84 11.6 0 1 .78-.51h25.77a1 1 0 0 1 .92.61l56.44 132.67a.4.39 78.5 0 1-.36.55l-29.48-.01a.87.87 0 0 1-.81-.55l-11.65-28.68a.83.83 0 0 0-.77-.52l-54.98-.01a.91.9-78.9 0 0-.84.57l-11.71 28.78a.64.63-79.1 0 1-.59.39l-28.95-.01Zm52.13-56.17a.37.37 0 0 0 .35.51h34.14a.37.37 0 0 0 .35-.51l-17.08-41.64a.37.37 0 0 0-.68 0l-17.08 41.64ZM1280 930.44v133.93l-28.45-.11a.52.52 0 0 1-.51-.52V960.89a.58.58 0 0 0-.72-.56l-21.85 5.56a.57.57 0 0 1-.69-.41l-5.86-23.03a.58.58 0 0 1 .39-.69l36.68-10.95a5.82 5.81 36.3 0 1 1.72-.26l19.29-.11Zm-571.04 94.89v38.61a.47.47 0 0 1-.47.47h-28.08a.65.65 0 0 1-.65-.65V931.93a.35.35 0 0 1 .35-.35q32.91-.18 56.14-.01c21.67.16 41.13 10.85 47.07 32.65 2.37 8.73 2.24 20.21-.57 28.82-7.19 22.08-28.84 31.57-50.98 31.57h-22.09a.72.71-89.6 0 0-.72.72Zm-.15-66.6.28 39.16a.62.62 0 0 0 .62.62l24.8-.18a20.82 18.87-.4 0 0 20.69-19.01l-.02-2.66a20.82 18.87-.4 0 0-20.95-18.73l-24.8.18a.62.62 0 0 0-.62.62Zm264.8 51.76h-61.45a.61.61 0 0 0-.61.61v26.61a.61.61 0 0 0 .61.61h70.93a.61.61 0 0 1 .61.61v24.88a.61.61 0 0 1-.61.61H883.04a.61.61 0 0 1-.61-.61V932.14a.61.61 0 0 1 .61-.61h99.1a.61.61 0 0 1 .61.61v24.78a.61.61 0 0 1-.61.61h-69.98a.61.61 0 0 0-.61.61v25.73a.61.61 0 0 0 .61.61h61.45a.61.61 0 0 1 .61.61v24.79a.61.61 0 0 1-.61.61Z"/>
  <rect width="58.58" height="27.76" x="1079.08" y="991.68" fill="#1b439a" rx=".5"/>
</svg>
