<?xml version="1.0" encoding="UTF-8"?>
<!-- Generator: visioncortex VTracer 0.6.4 -->
<svg version="1.1" xmlns="http://www.w3.org/2000/svg" width="1280" height="1067">
<path d="M0 0 C1.06927734 -0.020625 2.13855469 -0.04125 3.24023438 -0.0625 C23.18006595 -0.15888589 41.20565079 8.35755973 55.6015625 21.890625 C61.43660103 27.78420907 65.99122942 34.05723419 70.03100586 41.296875 C70.41784263 41.98815994 70.80467939 42.67944489 71.20323849 43.39167786 C76.2082605 52.43024671 80.78054472 61.6877599 85.37890625 70.9375 C86.35543434 72.89430147 87.3323248 74.85092214 88.30955505 76.80737305 C90.85975894 81.91534118 93.40515606 87.02568919 95.94946289 92.13659668 C98.52265753 97.30344673 101.10036722 102.46804292 103.67773438 107.6328125 C107.03268435 114.35671855 110.38630608 121.08128159 113.73685741 127.80738068 C115.41399598 131.17399572 117.09190835 134.54022485 118.76983261 137.90644836 C119.89264612 140.1599766 121.01420399 142.4141263 122.13565063 144.66833496 C126.07732562 152.58305502 130.10056303 160.44838478 134.203125 168.28125 C140.07756938 179.55809423 145.80638244 190.9043433 151.484375 202.28125 C151.8984108 203.11076172 152.31244659 203.94027344 152.73902893 204.79492188 C155.7247222 210.77851896 158.70649667 216.76406536 161.6875 222.75 C164.68913492 228.77721868 167.69225352 234.80368994 170.69876862 240.82847595 C171.873379 243.18399784 173.04550866 245.54074146 174.21746826 247.89758301 C178.46294613 256.41708932 182.82177417 264.86714749 187.27502728 273.27988338 C190.94170557 280.22107367 194.46924517 287.2252692 197.95152664 294.26039505 C199.65970184 297.70733791 201.38055312 301.14795228 203.09936523 304.58959961 C203.81772659 306.02942261 204.53602294 307.46927803 205.2542572 308.90916443 C208.03499869 314.48300272 210.81782321 320.05580063 213.60084438 325.62850094 C215.69825773 329.82854565 217.79491361 334.02896503 219.88989258 338.23022461 C221.94624411 342.35393364 224.0046503 346.47661143 226.06437874 350.59863472 C226.83637441 352.14444154 227.60767931 353.69059358 228.37820244 355.23713493 C232.75537303 364.02148685 237.21361069 372.75329737 241.83927822 381.40981197 C244.92291266 387.18357503 247.87240274 393.01897461 250.7734375 398.88671875 C253.31417155 404.01479486 255.8765168 409.1320144 258.4375 414.25 C259.30214866 415.979134 260.16673155 417.70830089 261.03125 419.4375 C262.6031928 422.58166397 264.17543463 425.72567773 265.74829102 428.86938477 C268.9119633 435.19359743 272.0729483 441.51911117 275.22433472 447.84945679 C276.7274124 450.86823615 278.23216213 453.88618069 279.73706055 456.90405273 C280.49461604 458.42420217 281.25145419 459.94470931 282.00756836 461.46557617 C286.51100809 470.52202944 291.08908105 479.52876098 295.8578949 488.44883728 C298.92782498 494.19324022 301.86442667 499.99893567 304.74609375 505.83984375 C306.42848267 509.2371737 308.13472299 512.62187572 309.84765625 516.00390625 C310.34861816 516.99624268 310.84958008 517.9885791 311.36572266 519.01098633 C312.35590388 520.971968 313.34897236 522.93149499 314.34521484 524.8894043 C314.79719238 525.78699463 315.24916992 526.68458496 315.71484375 527.609375 C316.11952881 528.40827148 316.52421387 529.20716797 316.94116211 530.03027344 C317.9375 532.25 317.9375 532.25 318.45141602 534.47753906 C318.61182373 535.06245117 318.77223145 535.64736328 318.9375 536.25 C319.5975 536.58 320.2575 536.91 320.9375 537.25 C320.9375 538.24 320.9375 539.23 320.9375 540.25 C321.5975 540.58 322.2575 540.91 322.9375 541.25 C324.51298683 543.87581138 324.9375 545.12099787 324.9375 548.25 C325.5975 548.58 326.2575 548.91 326.9375 549.25 C328.0078125 550.9921875 328.0078125 550.9921875 329.0625 553.125 C329.41570313 553.82367187 329.76890625 554.52234375 330.1328125 555.2421875 C330.9375 557.25 330.9375 557.25 330.9375 560.25 C331.5975 560.58 332.2575 560.91 332.9375 561.25 C334.25885829 563.66951417 335.49127019 566.08201591 336.6875 568.5625 C337.41141929 570.03777957 338.1353779 571.51303986 338.859375 572.98828125 C339.21451172 573.71740723 339.56964844 574.4465332 339.93554688 575.19775391 C341.25063785 577.89138322 342.59254544 580.57117568 343.9375 583.25 C345.54290148 586.45648736 347.14383022 589.66503063 348.734375 592.87890625 C352.37551197 600.22038567 356.10330232 607.50730152 359.9375 614.75 C364.06382277 622.54590917 368.05699331 630.39782152 371.96972656 638.30273438 C372.94907415 640.27328846 373.93786116 642.23882502 374.9296875 644.203125 C378.81780144 651.91226756 382.58975001 659.66533968 386.23632812 667.49194336 C386.54634766 668.15718018 386.85636719 668.82241699 387.17578125 669.5078125 C387.47121826 670.14340088 387.76665527 670.77898926 388.07104492 671.43383789 C388.88636557 673.14281798 389.75790618 674.82465057 390.6328125 676.50390625 C392.16839005 679.73597517 392.45387487 682.72644545 392.9375 686.25 C393.5975 686.58 394.2575 686.91 394.9375 687.25 C400.14652913 707.60947334 399.01271715 730.55987458 389.375 749.375 C388.02412907 752.01260555 386.87642243 754.4332327 385.9375 757.25 C385.2775 757.25 384.6175 757.25 383.9375 757.25 C383.9375 758.57 383.9375 759.89 383.9375 761.25 C383.2775 761.25 382.6175 761.25 381.9375 761.25 C381.6075 762.57 381.2775 763.89 380.9375 765.25 C380.2775 765.25 379.6175 765.25 378.9375 765.25 C378.6075 766.24 378.2775 767.23 377.9375 768.25 C377.2775 768.25 376.6175 768.25 375.9375 768.25 C375.9375 769.24 375.9375 770.23 375.9375 771.25 C375.2775 771.25 374.6175 771.25 373.9375 771.25 C373.69 771.8275 373.4425 772.405 373.1875 773 C371.75450012 775.57939979 370.15325324 777.31121592 367.9375 779.25 C367.2775 779.25 366.6175 779.25 365.9375 779.25 C365.9375 779.91 365.9375 780.57 365.9375 781.25 C357.00858534 789.03799779 343.36521094 795.29223952 331.9375 798.25 C331.23882813 798.44078125 330.54015625 798.6315625 329.8203125 798.828125 C310.56356682 803.62517908 293.94259792 799.16881291 275.9375 792.25 C275.9375 791.59 275.9375 790.93 275.9375 790.25 C275.22335937 789.99476563 274.50921875 789.73953125 273.7734375 789.4765625 C257.06513458 782.25010641 246.44179483 764.98630565 238.60546875 749.3984375 C238.01960495 748.25112152 237.43374115 747.10380554 236.8301239 745.92172241 C234.8503155 742.03895757 232.89303862 738.14503026 230.9375 734.25 C230.20984262 732.80308847 229.48216056 731.35618935 228.75445557 729.90930176 C223.22683552 718.91089295 217.73611064 707.89415594 212.25 696.875 C209.4205707 691.19235645 206.58971245 685.51043254 203.75554466 679.8301506 C202.6377202 677.58808078 201.52232564 675.34481377 200.40705872 673.10147095 C199.72502187 671.73376709 199.04287371 670.36611873 198.3605957 668.99853516 C198.05674957 668.38567657 197.75290344 667.77281799 197.43984985 667.14138794 C195.74332511 663.74792145 193.90118281 660.49429309 191.9375 657.25 C190.72668745 654.71652155 189.54176845 652.17844322 188.375 649.625 C185.69321779 643.83803682 182.8729192 638.16284286 179.8515625 632.546875 C174.72481836 622.90258134 169.84087305 613.13969575 164.96484375 603.3671875 C164.3577057 602.15068323 164.3577057 602.15068323 163.73830223 600.90960312 C160.78104696 594.98280689 157.82763068 589.05410117 154.875 583.125 C151.91373312 577.17859298 148.95103617 571.23290668 145.98492622 565.28891373 C144.81970885 562.95214788 143.65696436 560.61416394 142.49436951 558.27609253 C138.51931917 550.29904604 134.44452493 542.38679527 130.25109959 534.52237034 C126.69233792 527.83041109 123.30067508 521.06088549 119.93804169 514.26874161 C118.23011967 510.82275502 116.50987253 507.38292422 114.79150391 503.94213867 C114.07640314 502.50883612 113.36136711 501.07550127 112.64639282 499.64213562 C109.87437853 494.08573553 107.10027023 488.5303813 104.32596779 482.97512341 C102.23642754 478.79083153 100.14764266 474.60616606 98.06054688 470.4206543 C86.19158397 446.53971471 86.19158397 446.53971471 73.86694336 422.89233398 C71.79187219 419.00829375 69.8267637 415.07212513 67.875 411.125 C65.15567796 405.63444629 62.33412484 400.21159652 59.4375 394.8125 C56.09939854 388.57495785 52.97258805 382.26872412 50.02734375 375.83618164 C46.85288316 368.93367847 43.4122592 362.16346236 40.00296021 355.37509155 C38.6393416 352.65531435 37.28340104 349.93176052 35.92857361 347.20759583 C34.59985301 344.53593683 33.26865978 341.86551267 31.9375 339.19506836 C31.27011872 337.85525481 30.60345339 336.5150844 29.9375 335.17456055 C25.97283101 327.1958578 21.93568806 319.26740002 17.70458984 311.4261322 C14.76102424 305.96655236 11.97929404 300.43280816 9.234375 294.87109375 C7.43005498 291.22876651 5.60056614 287.59965085 3.765625 283.97265625 C3.21616211 282.88331787 2.66669922 281.79397949 2.10058594 280.67163086 C1.00260917 278.49518043 -0.09824634 276.3201796 -1.20214844 274.14672852 C-1.70262695 273.15213623 -2.20310547 272.15754395 -2.71875 271.1328125 C-3.17056641 270.23965332 -3.62238281 269.34649414 -4.08789062 268.42626953 C-5.0625 266.25 -5.0625 266.25 -5.0625 264.25 C-5.7225 264.25 -6.3825 264.25 -7.0625 264.25 C-7.32949707 264.95833984 -7.59649414 265.66667969 -7.87158203 266.39648438 C-9.11054486 269.36511855 -10.55082595 272.09695888 -12.1171875 274.90625 C-12.7258667 276.00050293 -13.3345459 277.09475586 -13.96166992 278.22216797 C-14.62012204 279.3982004 -15.27873587 280.57414231 -15.9375 281.75 C-16.61771641 282.96884468 -17.29780944 284.18775822 -17.9777832 285.40673828 C-23.45801498 295.21884694 -29.01561356 304.98606772 -34.61523438 314.73046875 C-37.08236608 319.02547536 -39.54154969 323.32501989 -42 327.625 C-42.49411377 328.48875244 -42.98822754 329.35250488 -43.49731445 330.24243164 C-46.62363087 335.71335872 -49.72663574 341.19696035 -52.81835938 346.6875 C-57.80613815 355.54396604 -62.8576902 364.35729018 -68 373.125 C-73.42784879 382.38311784 -78.717188 391.71112474 -83.94189453 401.08520508 C-88.20344653 408.72923647 -92.52355632 416.33755196 -96.87548828 423.93041992 C-99.79400525 429.02437184 -102.69178504 434.12896672 -105.5625 439.25 C-113.42939366 453.27251137 -121.45415971 467.20461528 -129.5 481.125 C-134.8304501 490.3492913 -140.10826678 499.60136041 -145.33935547 508.88232422 C-150.46861237 517.9813874 -155.64976581 527.05041237 -160.84008789 536.11474609 C-162.22564902 538.53498129 -163.60914776 540.95639234 -164.99243164 543.37792969 C-166.29468344 545.65620183 -167.59855866 547.93354248 -168.90234375 550.2109375 C-169.93490584 552.01561927 -170.96745773 553.82030689 -172 555.625 C-172.51240234 556.51960937 -173.02480469 557.41421875 -173.55273438 558.3359375 C-175.90716818 562.45245709 -178.24883505 566.57393706 -180.5390625 570.7265625 C-183.43372344 575.95529255 -186.47151476 581.09803026 -189.5 586.25 C-195.16895539 595.92305589 -200.68550637 605.6726425 -206.13110352 615.47290039 C-209.80929503 622.07304429 -213.57957373 628.60047009 -217.57543945 635.01391602 C-219.48760851 637.91385348 -219.48760851 637.91385348 -220.0625 641.25 C-220.7225 641.25 -221.3825 641.25 -222.0625 641.25 C-222.31773437 641.93191406 -222.57296875 642.61382813 -222.8359375 643.31640625 C-224.25848999 646.71875314 -225.93939402 649.94528994 -227.6875 653.1875 C-228.04376465 653.85080322 -228.4000293 654.51410645 -228.76708984 655.19750977 C-233.39220158 663.76589106 -238.26485665 672.18623566 -243.1875 680.5859375 C-249.24233363 690.92221892 -255.23592931 701.28299365 -261.0625 711.75 C-267.42143225 723.16619787 -273.93543839 734.48412138 -280.58349609 745.734375 C-281.84918275 747.88717053 -283.09520533 750.04931973 -284.33203125 752.21875 C-295.88604598 771.98529252 -313.23040198 784.82606011 -335 791.5625 C-357.98802376 797.48990523 -380.25301717 794.61481337 -400.98535156 782.62109375 C-407.4147367 778.65551068 -412.72923722 773.56736632 -418.0625 768.25 C-419.46822266 766.91001953 -419.46822266 766.91001953 -420.90234375 765.54296875 C-423.0625 763.25 -423.0625 763.25 -423.0625 761.25 C-423.7225 761.25 -424.3825 761.25 -425.0625 761.25 C-434.67067148 745.13171669 -441.49163321 729.60418246 -441.375 710.5 C-441.37008545 709.53916504 -441.3651709 708.57833008 -441.36010742 707.58837891 C-440.92314457 680.89106894 -425.53836197 658.74413497 -412.41625977 636.42480469 C-408.20470173 629.25045449 -404.10661432 622.01990484 -400.0625 614.75 C-395.50991317 606.56803384 -390.87001784 598.44686181 -386.125 590.375 C-381.14516605 581.90034985 -376.31160897 573.35599823 -371.5625 564.75 C-366.26164549 555.14416765 -360.82470901 545.63325237 -355.26611328 536.17456055 C-350.45950122 527.97755823 -345.80288746 519.702326 -341.17602539 511.40283203 C-336.02035043 502.15722477 -330.77949477 492.96242717 -325.51269531 483.77978516 C-323.10803227 479.58498408 -320.71063183 475.38603713 -318.3125 471.1875 C-317.31253558 469.43747967 -316.31253455 467.68748026 -315.3125 465.9375 C-314.53132813 464.57044922 -314.53132813 464.57044922 -313.734375 463.17578125 C-303.88964844 445.94750977 -303.88964844 445.94750977 -294.04492188 428.71923828 C-293.71475571 428.14144623 -293.38458954 427.56365417 -293.04441833 426.96835327 C-292.37943452 425.80463413 -291.71444632 424.6409175 -291.04945374 423.47720337 C-289.38955563 420.57242617 -287.72973383 417.66760543 -286.07006836 414.76269531 C-283.0431939 409.46493578 -280.01572261 404.16752131 -276.98550415 398.87167358 C-270.48574839 387.51209628 -263.99320108 376.14888156 -257.5625 364.75 C-252.81758628 356.33929814 -248.0434606 347.94560911 -243.25 339.5625 C-242.91567963 338.97779938 -242.58135925 338.39309875 -242.23690796 337.79067993 C-239.5026929 333.00927527 -236.76705582 328.22868456 -234.03137207 323.44812012 C-231.64525915 319.27828815 -229.25983276 315.10806425 -226.875 310.9375 C-226.5411026 310.35372589 -226.2072052 309.76995178 -225.8631897 309.16848755 C-221.36032593 301.29444909 -216.88780252 293.40386247 -212.4375 285.5 C-208.09518478 277.78856649 -203.66829232 270.13172048 -199.1875 262.5 C-193.52781659 252.85664295 -188.07291032 243.11123134 -182.6706543 233.32177734 C-177.99154164 224.86508247 -173.16269514 216.50674751 -168.26611328 208.17456055 C-163.45950122 199.97755823 -158.80288746 191.702326 -154.17602539 183.40283203 C-149.02035043 174.15722477 -143.77949477 164.96242717 -138.51269531 155.77978516 C-136.10803227 151.58498408 -133.71063183 147.38603713 -131.3125 143.1875 C-130.31253558 141.43747967 -129.31253455 139.68748026 -128.3125 137.9375 C-127.79171875 137.02613281 -127.2709375 136.11476562 -126.734375 135.17578125 C-107.04492187 100.71923828 -107.04492187 100.71923828 -106.04447937 98.9684906 C-105.37925705 97.80433373 -104.71406541 96.64015932 -104.04890442 95.47596741 C-102.3929418 92.57772233 -100.73633779 89.67984838 -99.07885742 86.7824707 C-95.64610047 80.78095753 -92.22362688 74.77386389 -88.81640625 68.7578125 C-70.80041278 36.9665632 -54.2602462 11.56114872 -17.0625 1.25 C-11.38054952 -0.05587908 -5.80584078 0.02730554 0 0 Z " fill="#1B4299" transform="translate(553.0625,-0.25)"/>
<path d="M0 0 C0.72703125 0.54527344 1.4540625 1.09054688 2.203125 1.65234375 C7.57192667 6.00681076 11.36170829 11.15640104 15 17 C15.39058594 17.62390625 15.78117187 18.2478125 16.18359375 18.890625 C24.26773028 33.36028571 23.58164652 49.46264315 23.51387022 65.49963333 C23.50363763 68.97967222 23.51679667 72.45964092 23.52684355 75.93966961 C23.54123369 82.02698781 23.54088714 88.1141639 23.53065491 94.20148849 C23.51548046 103.25376021 23.52328294 112.30591277 23.53548814 121.35818377 C23.5565202 137.52858598 23.55473787 153.69892487 23.54317249 169.86933306 C23.53310126 184.02051064 23.53048765 198.17166503 23.53526306 212.32284546 C23.5355686 213.2623533 23.53587414 214.20186115 23.53618894 215.16983893 C23.53743434 218.98382478 23.53870795 222.79781062 23.540028 226.61179645 C23.55225777 262.37336006 23.54118003 298.1348834 23.51964041 333.89644079 C23.50065868 365.65266179 23.50235722 397.40881862 23.52148438 429.16503906 C23.54291342 464.86214208 23.55139036 500.55920953 23.53903532 536.25631809 C23.53775249 540.06326357 23.53650113 543.87020905 23.53526306 547.67715454 C23.53494675 548.61448802 23.53463044 549.55182149 23.53430455 550.51755901 C23.529759 564.6581493 23.53506766 578.79871382 23.54518127 592.93930054 C23.55662634 609.02143953 23.55374187 625.10350542 23.5320583 641.18563533 C23.52032937 650.1808414 23.51952288 659.17588909 23.534643 668.17109099 C23.54363606 674.18566892 23.53798801 680.20012033 23.52062392 686.21467957 C23.51114321 689.63744541 23.50778244 693.05989747 23.52224785 696.48265302 C23.59665858 719.01409074 21.96816066 737.91198949 5.953125 755.234375 C4 757 4 757 2 757 C2 757.66 2 758.32 2 759 C-14.0466348 770.7862405 -30.40355944 773.63109888 -50 772 C-54.67537201 771.09114821 -58.81453398 769.24447196 -63 767 C-67.06987566 764.95019475 -67.06987566 764.95019475 -71.1875 763 C-73.20476917 761.8870239 -74.40163636 760.65983916 -76 759 C-76.99 758.195625 -77.98 757.39125 -79 756.5625 C-81.46532636 754.4567004 -83.30433499 752.73190474 -85 750 C-85 749.34 -85 748.68 -85 748 C-85.66 748 -86.32 748 -87 748 C-87 747.01 -87 746.02 -87 745 C-87.66 745 -88.32 745 -89 745 C-91.85123294 741.03306722 -93.49419045 736.61049136 -95 732 C-95.26071692 731.22374244 -95.52143385 730.44748488 -95.79005128 729.64770436 C-98.67304762 719.79411393 -98.40953002 710.08332072 -98.36076355 699.91668701 C-98.36207319 697.88105214 -98.36470252 695.84541777 -98.36853105 693.80978608 C-98.3752168 688.23866016 -98.36326962 682.66770834 -98.34819686 677.09660459 C-98.33521318 671.08039957 -98.33962761 665.06420398 -98.34190369 659.04798889 C-98.34347494 648.6319855 -98.33418624 638.2160286 -98.31719017 627.8000412 C-98.29941754 616.88006065 -98.28788799 605.96010264 -98.28463173 595.04010773 C-98.28442551 594.36023633 -98.28421929 593.68036494 -98.28400682 592.97989138 C-98.28299177 589.52693686 -98.28208764 586.07398231 -98.2812262 582.62102774 C-98.2749309 558.18630135 -98.25473543 533.75160437 -98.22631836 509.31689453 C-98.19874958 485.58414872 -98.17750633 461.85141097 -98.16479492 438.11865234 C-98.16440034 437.38664921 -98.16400576 436.65464607 -98.16359923 435.90046101 C-98.15964355 428.54914715 -98.15581612 421.19783322 -98.15208265 413.84651924 C-98.14447474 398.87206464 -98.13601098 383.89761057 -98.12702942 368.92315674 C-98.12641161 367.89048537 -98.12641161 367.89048537 -98.12578133 366.83695194 C-98.09819585 320.89128886 -98.05059964 274.94564289 -98 229 C-100.23384449 231.8665871 -102.46662154 234.7340039 -104.69921875 237.6015625 C-105.32662964 238.4066626 -105.95404053 239.2117627 -106.60046387 240.04125977 C-111.47661417 246.30581377 -116.26429473 252.62848814 -121 259 C-125.18302509 264.60755922 -129.38414161 270.19984395 -133.6328125 275.7578125 C-140.78450754 285.11346698 -147.8711895 294.50550556 -154.82397461 304.01000977 C-159.61609099 310.53557666 -164.55863955 316.93650663 -169.55908203 323.3034668 C-170.38835205 324.35981323 -170.38835205 324.35981323 -171.234375 325.4375 C-171.72131836 326.05496094 -172.20826172 326.67242187 -172.70996094 327.30859375 C-173.86828269 328.82730176 -174.94051053 330.4107658 -176 332 C-176.66 332 -177.32 332 -178 332 C-178.309375 332.85078125 -178.309375 332.85078125 -178.625 333.71875 C-180.48936983 336.81190904 -183.05996208 338.52164496 -186 340.5 C-186.58233398 340.89582275 -187.16466797 341.29164551 -187.76464844 341.69946289 C-201.85606954 351.02489513 -218.42827471 353.09111367 -234.921875 350.34765625 C-247.3947254 347.11857387 -258.26188917 340.49206287 -267 331 C-267 330.34 -267 329.68 -267 329 C-267.66 329 -268.32 329 -269 329 C-278.82885342 312.58744904 -284.54309805 295.98015881 -280.12890625 276.5859375 C-276.66913098 264.0424243 -269.40119947 254.23244853 -261.5 244.0625 C-260.09176028 242.23229973 -258.68422608 240.40155641 -257.27734375 238.5703125 C-256.56819824 237.64895508 -255.85905273 236.72759766 -255.12841797 235.77832031 C-251.74043833 231.35583714 -248.39994073 226.89817914 -245.0625 222.4375 C-244.43641846 221.60154297 -243.81033691 220.76558594 -243.1652832 219.90429688 C-240.57956718 216.45069405 -237.99638087 212.99520609 -235.4140625 209.5390625 C-231.38701545 204.15553645 -227.32279429 198.80374377 -223.21704102 193.47998047 C-212.36750759 179.40369036 -201.63865121 165.23615654 -191 151 C-183.76178938 141.31415756 -176.47099799 131.67093015 -169.13378906 122.05981445 C-164.5593424 116.06195355 -160.01826596 110.04027101 -155.5 104 C-149.6336887 96.15758648 -143.71280308 88.35842755 -137.76953125 80.57421875 C-133.34363955 74.77388021 -128.95194386 68.9494973 -124.58398438 63.10546875 C-119.67003811 56.54027739 -114.69255281 50.02383916 -109.7175293 43.50488281 C-106.23038814 38.93364546 -102.75407509 34.35563726 -99.3125 29.75 C-98.63703125 28.85152344 -97.9615625 27.95304687 -97.265625 27.02734375 C-96.01468317 25.35582665 -94.76633647 23.68232 -93.52929688 22.00048828 C-81.96901149 6.29296807 -70.00412655 -6.92640851 -50.22265625 -11.55859375 C-31.75008444 -14.08877631 -15.11084229 -11.4318954 0 0 Z " fill="#1B4299" transform="translate(1099,20)"/>
<path d="M0 0 C4.47149099 2.63772802 6.93427821 6.17718448 9.6875 10.5 C10.02974609 11.03109375 10.37199219 11.5621875 10.72460938 12.109375 C16.3285921 20.82882488 21.6332166 29.72813105 26.93066406 38.63574219 C30.84224593 45.17834339 34.93307815 51.59331141 39.0625 58 C53.65340331 80.77277354 53.65340331 80.77277354 52.25 92 C52.064375 92.825 51.87875 93.65 51.6875 94.5 C51.0275 94.5 50.3675 94.5 49.6875 94.5 C49.543125 95.345625 49.39875 96.19125 49.25 97.0625 C47.01030758 101.98982332 43.35516117 104.83591037 38.6875 107.5 C36.69440494 107.87240192 34.69233158 108.1970785 32.6875 108.5 C29.0106144 109.52744127 25.3831666 110.70347926 21.75 111.875 C20.78642578 112.17921875 19.82285156 112.4834375 18.83007812 112.796875 C13.64373899 114.45593632 8.65917238 116.28246603 3.6875 118.5 C1.6915278 119.17863055 -0.30818551 119.84641919 -2.3125 120.5 C-5.34636459 121.62887985 -7.59667005 122.6894467 -10.3125 124.5 C-11.6325 124.5 -12.9525 124.5 -14.3125 124.5 C-14.3125 125.16 -14.3125 125.82 -14.3125 126.5 C-15.26125 126.850625 -16.21 127.20125 -17.1875 127.5625 C-21.62661782 129.43255782 -25.3198282 132.22211259 -29.17578125 135.07421875 C-31.3125 136.5 -31.3125 136.5 -33.3125 136.5 C-33.56 137.11875 -33.8075 137.7375 -34.0625 138.375 C-35.57192656 140.94102515 -36.68879584 141.19521355 -39.3125 142.5 C-40.70001413 143.60521759 -42.05381983 144.75378367 -43.375 145.9375 C-44.04660156 146.53433594 -44.71820312 147.13117188 -45.41015625 147.74609375 C-46.62321553 148.86449953 -47.80285933 150.02108063 -48.93359375 151.22265625 C-50.3125 152.5 -50.3125 152.5 -52.3125 152.5 C-52.3125 153.16 -52.3125 153.82 -52.3125 154.5 C-52.9725 154.5 -53.6325 154.5 -54.3125 154.5 C-54.3125 155.16 -54.3125 155.82 -54.3125 156.5 C-55.6325 156.83 -56.9525 157.16 -58.3125 157.5 C-58.3125 158.49 -58.3125 159.48 -58.3125 160.5 C-60.02734375 162.03515625 -60.02734375 162.03515625 -62.25 163.5625 C-65.30528157 165.56958135 -65.30528157 165.56958135 -67.3125 168.5 C-67.9725 168.5 -68.6325 168.5 -69.3125 168.5 C-69.3125 169.16 -69.3125 169.82 -69.3125 170.5 C-69.9725 170.5 -70.6325 170.5 -71.3125 170.5 C-71.6425 171.49 -71.9725 172.48 -72.3125 173.5 C-74.59553353 175.96814436 -76.83501305 178.15514831 -79.5625 180.125 C-81.60962875 181.47372834 -81.60962875 181.47372834 -82.3125 184.5 C-82.9725 184.5 -83.6325 184.5 -84.3125 184.5 C-84.3125 185.16 -84.3125 185.82 -84.3125 186.5 C-85.62450404 187.85432675 -86.95881404 189.18733482 -88.3125 190.5 C-88.6425 191.16 -88.9725 191.82 -89.3125 192.5 C-90.3025 192.5 -91.2925 192.5 -92.3125 192.5 C-92.57933594 193.08652344 -92.84617187 193.67304687 -93.12109375 194.27734375 C-94.33618377 196.54418381 -95.64401806 198.16783182 -97.375 200.0625 C-102.93806416 206.28755718 -108.38765341 212.66166435 -113.1875 219.5 C-115.31149081 222.49857527 -117.01170462 224.84960231 -120.3125 226.5 C-120.99870031 227.82338632 -121.66036461 229.15949948 -122.3125 230.5 C-124.3125 233.75 -124.3125 233.75 -126.3125 236.5 C-126.9725 236.5 -127.6325 236.5 -128.3125 236.5 C-128.56 237.03625 -128.8075 237.5725 -129.0625 238.125 C-130.61902537 241.0823982 -132.34685673 243.79724051 -134.3125 246.5 C-134.9725 246.5 -135.6325 246.5 -136.3125 246.5 C-136.539375 247.20125 -136.76625 247.9025 -137 248.625 C-139.08371822 253.18933515 -142.49540515 257.22820442 -146.3125 260.5 C-146.9725 260.5 -147.6325 260.5 -148.3125 260.5 C-148.3125 261.16 -148.3125 261.82 -148.3125 262.5 C-155.94582393 264.81725905 -161.86632419 264.99039491 -169.3125 261.5 C-169.3125 260.84 -169.3125 260.18 -169.3125 259.5 C-169.9725 259.17 -170.6325 258.84 -171.3125 258.5 C-176.86189334 250.6027864 -174.46256666 239.86732597 -172.94921875 230.9375 C-168.82892164 208.69295119 -168.82892164 208.69295119 -165.15625 197.96875 C-164.55967621 196.22321928 -163.97774596 194.47265141 -163.40625 192.71875 C-159.6968127 181.35111956 -155.41444149 170.31403882 -150.3125 159.5 C-149.9501123 158.73155762 -149.58772461 157.96311523 -149.21435547 157.17138672 C-146.58977312 151.60979679 -143.95478329 146.05320015 -141.3125 140.5 C-140.6525 140.5 -139.9925 140.5 -139.3125 140.5 C-139.065 139.675 -138.8175 138.85 -138.5625 138 C-137.12545189 133.97626529 -135.28895485 130.28020976 -133.3125 126.5 C-132.6525 126.5 -131.9925 126.5 -131.3125 126.5 C-131.04695313 125.79488281 -130.78140625 125.08976563 -130.5078125 124.36328125 C-129.24751033 121.34432214 -127.77292006 118.54814924 -126.1875 115.6875 C-125.64867187 114.71167969 -125.10984375 113.73585938 -124.5546875 112.73046875 C-124.14476562 111.99441406 -123.73484375 111.25835938 -123.3125 110.5 C-122.6525 110.5 -121.9925 110.5 -121.3125 110.5 C-120.97605469 109.48486328 -120.97605469 109.48486328 -120.6328125 108.44921875 C-118.94246874 104.67345088 -116.66427489 101.60872829 -114.1875 98.3125 C-113.6939502 97.64831055 -113.20040039 96.98412109 -112.69189453 96.29980469 C-108.68546487 90.93449187 -104.55553948 85.68025704 -100.3125 80.5 C-99.62929688 79.654375 -98.94609375 78.80875 -98.2421875 77.9375 C-89.4042561 67.04055232 -80.48685724 56.3696216 -70.39453125 46.609375 C-68.2716128 44.67658576 -68.2716128 44.67658576 -67.3125 42.5 C-66.6525 42.5 -65.9925 42.5 -65.3125 42.5 C-64.9825 41.51 -64.6525 40.52 -64.3125 39.5 C-61.875 36.8125 -61.875 36.8125 -59.3125 34.5 C-58.6525 34.5 -57.9925 34.5 -57.3125 34.5 C-57.3125 33.84 -57.3125 33.18 -57.3125 32.5 C-56.0546875 31.23046875 -56.0546875 31.23046875 -54.1875 29.6875 C-50.8016972 26.81705833 -47.53142542 23.85756564 -44.29931641 20.81738281 C-15.12134705 -6.62653626 -15.12134705 -6.62653626 0 0 Z " fill="#DA2126" transform="translate(639.3125,502.5)"/>
<path d="M0 0 C7.07434865 6.9171409 8.4035142 14.50593433 9 24 C9.103125 25.31484375 9.20625 26.6296875 9.3125 27.984375 C9.41773379 29.40617142 9.52189868 30.82804735 9.625 32.25 C9.67736816 32.92353516 9.72973633 33.59707031 9.78369141 34.29101562 C10.05245605 38.36174308 9.83074064 42.00748527 9 46 C9.66 46.33 10.32 46.66 11 47 C10.98259766 48.28970703 10.98259766 48.28970703 10.96484375 49.60546875 C10.89402684 58.88248394 11.16194797 68.08433862 12.46484375 77.28125 C13.52566115 85.76778916 11.93677912 91.43974944 8 99 C7.34 99 6.68 99 6 99 C6 99.66 6 100.32 6 101 C5.01 101 4.02 101 3 101 C3 101.66 3 102.32 3 103 C-3.69746616 106.4335743 -10.68386781 107.33118243 -18.0625 108.5 C-33.94125001 110.31928726 -33.94125001 110.31928726 -49 115 C-51.00723055 115.25488642 -53.01498872 115.50811097 -55.02734375 115.71875 C-57.20671134 115.96937145 -57.20671134 115.96937145 -60 117 C-62.26171875 116.44140625 -62.26171875 116.44140625 -64.6875 115.5625 C-65.89986328 115.13130859 -65.89986328 115.13130859 -67.13671875 114.69140625 C-67.75160156 114.46324219 -68.36648438 114.23507812 -69 114 C-69 113.34 -69 112.68 -69 112 C-69.86625 111.87625 -70.7325 111.7525 -71.625 111.625 C-76.68725735 109.18761683 -78.62713346 104.96215087 -81 100 C-81.17917969 99.25492188 -81.35835937 98.50984375 -81.54296875 97.7421875 C-81.69378906 97.16726563 -81.84460938 96.59234375 -82 96 C-82.99 95.505 -82.99 95.505 -84 95 C-84 94.01 -84 93.02 -84 92 C-84.99 91.505 -84.99 91.505 -86 91 C-86.96484375 89.29296875 -86.96484375 89.29296875 -87.9375 87.1875 C-89.05051938 84.85802078 -90.05132731 82.93287968 -91.625 80.875 C-93 79 -93 79 -93.8125 76.375 C-94.83899545 73.45759188 -95.88879112 71.40758433 -97.5 68.8125 C-101.99151708 61.53163001 -105.85853972 53.92274904 -109.78369141 46.32714844 C-110.89768927 44.19574987 -112.04128434 42.08431105 -113.19921875 39.9765625 C-117.23280555 32.52469854 -119.67232876 27.04295483 -117.36328125 18.69921875 C-115.15809298 12.76217341 -111.47611632 8.2301928 -106 5 C-100.83475066 3.55054159 -95.90531534 2.64443128 -90.55273438 2.13037109 C-89.50688675 2.02752052 -89.50688675 2.02752052 -88.43991089 1.92259216 C-86.15840823 1.69998472 -83.87617759 1.486336 -81.59375 1.2734375 C-79.98438522 1.11967282 -78.37505142 0.9655836 -76.76574707 0.81118774 C-73.39726367 0.48950391 -70.02838893 0.17238559 -66.65917969 -0.14160156 C-62.38679002 -0.54021101 -58.11568262 -0.95104954 -53.84481049 -1.36556435 C-50.51971321 -1.68669518 -47.19396393 -2.00062859 -43.86799622 -2.312603 C-42.29566346 -2.46101198 -40.72353912 -2.61164981 -39.1516571 -2.76475906 C-7.17637989 -5.86496022 -7.17637989 -5.86496022 0 0 Z " fill="#DA2126" transform="translate(967,414)"/>
<path d="M0 0 C1.890625 2.27734375 1.890625 2.27734375 3 4 C-8.76595745 19.14893617 -8.76595745 19.14893617 -15 26 C-18.69457205 25.36121885 -21.16854093 23.711588 -24.25 21.625 C-34.47276686 14.99107683 -44.84678128 12.92140184 -57 14 C-66.65769659 16.24746929 -74.13647956 21.02746629 -80 29 C-81.11721677 30.9911053 -82.17994491 33.01371832 -83.1875 35.0625 C-83.95126953 36.59583984 -83.95126953 36.59583984 -84.73046875 38.16015625 C-88.84311914 47.35983882 -88.30744484 60.10976404 -85.375 69.625 C-81.55671472 79.32478437 -74.82774448 86.96044556 -65.3125 91.3125 C-54.16463338 96.00529643 -40.62578037 95.4126417 -29.48046875 91.0703125 C-28.66191406 90.71710938 -27.84335937 90.36390625 -27 90 C-25.35 89.34 -23.7 88.68 -22 88 C-22 82.06 -22 76.12 -22 70 C-24.08183594 70.01160156 -26.16367187 70.02320313 -28.30859375 70.03515625 C-30.31746298 70.04210735 -32.32633251 70.04902389 -34.33520508 70.05493164 C-35.73495228 70.0599708 -37.1346942 70.06680216 -38.53442383 70.07543945 C-40.54245777 70.0875232 -42.55052957 70.09269807 -44.55859375 70.09765625 C-45.76829834 70.10289307 -46.97800293 70.10812988 -48.22436523 70.11352539 C-51 70 -51 70 -52 69 C-52.08748207 67.07332493 -52.10697334 65.14348139 -52.09765625 63.21484375 C-52.09282227 61.46010742 -52.09282227 61.46010742 -52.08789062 59.66992188 C-52.07532227 57.82237305 -52.07532227 57.82237305 -52.0625 55.9375 C-52.05798828 54.70193359 -52.05347656 53.46636719 -52.04882812 52.19335938 C-52.03699608 49.12885883 -52.02051173 46.06445279 -52 43 C-44.32463373 42.97687179 -36.64927104 42.95908247 -28.97387791 42.94818783 C-25.41022578 42.94296005 -21.84659743 42.93586431 -18.28295898 42.92456055 C-14.18993903 42.91165824 -10.0969442 42.90677094 -6.00390625 42.90234375 C-4.07581871 42.89460182 -4.07581871 42.89460182 -2.10877991 42.88670349 C-0.92763107 42.88662796 0.25351776 42.88655243 1.47045898 42.88647461 C3.03932106 42.88314369 3.03932106 42.88314369 4.63987732 42.87974548 C7 43 7 43 8 44 C8.14605963 45.76655982 8.22290523 47.53888938 8.2722168 49.31079102 C8.32051888 51.01375084 8.32051888 51.01375084 8.36979675 52.75111389 C8.46575601 57.28531333 8.54671961 61.81949959 8.60025311 66.35441685 C8.64113768 69.79474689 8.70124167 73.23221123 8.80932617 76.67114258 C8.93351836 80.63602739 8.97503839 84.599705 9.01171875 88.56640625 C9.06019455 89.79065811 9.10867035 91.01490997 9.15861511 92.27626038 C9.14070209 100.6617066 9.14070209 100.6617066 5.84629822 104.52676392 C3.31596416 106.58603449 0.80286105 108.33535058 -2 110 C-2.73125595 110.4430246 -3.4625119 110.88604919 -4.21592712 111.34249878 C-6.04686738 112.40651081 -7.9001325 113.34127593 -9.8125 114.25 C-10.48901611 114.58008057 -11.16553223 114.91016113 -11.86254883 115.25024414 C-24.11721734 121.06370604 -35.62389313 123.19185568 -49.0625 123.25 C-50.80950195 123.2809375 -50.80950195 123.2809375 -52.59179688 123.3125 C-68.4960942 123.38338266 -83.25828954 118.58097608 -96 109 C-96.60328125 108.56171875 -97.2065625 108.1234375 -97.828125 107.671875 C-110.54679883 97.7031847 -118.59362513 80.71176516 -121 65 C-123.17195179 43.58646148 -116.6291131 24.32446831 -103.91015625 7.18359375 C-103.27980469 6.46300781 -102.64945313 5.74242187 -102 5 C-101.34 5 -100.68 5 -100 5 C-100 4.34 -100 3.68 -100 3 C-89.57055398 -6.25879391 -76.66502358 -12.49541357 -63 -15 C-62.30648437 -15.13019531 -61.61296875 -15.26039063 -60.8984375 -15.39453125 C-39.34483051 -18.72070517 -17.19689628 -13.27771412 0 0 Z " fill="#1B4299" transform="translate(343,944)"/>
<path d="M0 0 C3.77374724 0.00574844 7.54742411 0.00236809 11.3211689 -0.00357246 C14.27943438 -0.00721157 17.23768354 -0.00602509 20.19594955 -0.00344467 C21.58715702 -0.00278735 22.97836607 -0.00356093 24.36957169 -0.00592422 C41.22136962 -0.02833049 41.22136962 -0.02833049 49.37402344 1.13037109 C50.37402344 2.13037109 50.37402344 2.13037109 50.48754883 4.63061523 C50.4796936 6.25664673 50.4796936 6.25664673 50.47167969 7.91552734 C50.4668457 9.67026367 50.4668457 9.67026367 50.46191406 11.46044922 C50.4493457 13.30799805 50.4493457 13.30799805 50.43652344 15.19287109 C50.43201172 16.4284375 50.4275 17.66400391 50.42285156 18.93701172 C50.41101951 22.00151226 50.39453517 25.06591831 50.37402344 28.13037109 C42.32750217 29.15449359 34.37580762 29.26119932 26.27246094 29.22802734 C24.95484772 29.2266124 23.6372345 29.22519745 22.2796936 29.22373962 C18.81099479 29.21995838 15.3423392 29.21016671 11.87365723 29.19903564 C8.32039982 29.18872599 4.7671353 29.18422173 1.21386719 29.17919922 C-5.73276492 29.16853958 -12.67936866 29.15151732 -19.62597656 29.13037109 C-19.7930853 30.53885226 -19.95710566 31.9477 -20.11987305 33.35668945 C-20.25739235 34.53345497 -20.25739235 34.53345497 -20.39768982 35.73399353 C-20.74605214 39.39083155 -20.73318813 43.02308304 -20.68847656 46.69287109 C-20.68396484 47.41539062 -20.67945313 48.13791016 -20.67480469 48.88232422 C-20.66321935 50.63171053 -20.64529418 52.38105308 -20.62597656 54.13037109 C-19.27113159 53.88697998 -19.27113159 53.88697998 -17.88891602 53.63867188 C-12.4200919 52.86270337 -6.93156729 52.98756777 -1.41894531 52.99755859 C-0.25720291 52.99660187 0.90453949 52.99564514 2.10148621 52.99465942 C4.54641779 52.99398111 6.99135121 52.995811 9.4362793 53 C13.1909586 53.00537745 16.94551959 53.00003075 20.70019531 52.99365234 C23.0771487 52.99431271 25.45410202 52.99559302 27.83105469 52.99755859 C28.95808304 52.99553436 30.08511139 52.99351013 31.24629211 52.99142456 C32.80382454 52.9961528 32.80382454 52.9961528 34.39282227 53.00097656 C35.30880692 53.00177216 36.22479156 53.00256775 37.16853333 53.00338745 C39.37402344 53.13037109 39.37402344 53.13037109 41.37402344 54.13037109 C41.37402344 63.04037109 41.37402344 71.95037109 41.37402344 81.13037109 C38.22067517 82.18148718 36.0189006 82.25107582 32.70922852 82.24389648 C31.5482515 82.24382095 30.38727448 82.24374542 29.19111633 82.2436676 C27.31132332 82.23592567 27.31132332 82.23592567 25.39355469 82.22802734 C23.46886604 82.22590492 23.46886604 82.22590492 21.5052948 82.22373962 C18.09732103 82.21992515 14.68939001 82.210104 11.28143311 82.19903564 C7.80253681 82.18879853 4.32363359 82.18423707 0.84472656 82.17919922 C-5.97885869 82.16848077 -12.80241557 82.15141718 -19.62597656 82.13037109 C-20.37960708 85.4812888 -20.74577593 88.56146921 -20.72363281 91.99365234 C-20.71879883 93.32299805 -20.71879883 93.32299805 -20.71386719 94.67919922 C-20.70548828 95.59121094 -20.69710937 96.50322266 -20.68847656 97.44287109 C-20.68396484 98.37421875 -20.67945313 99.30556641 -20.67480469 100.26513672 C-20.6630689 102.55361482 -20.64665019 104.84195917 -20.62597656 107.13037109 C-19.75345245 107.12815048 -18.88092834 107.12592987 -17.98196411 107.12364197 C-9.77097992 107.10362919 -1.56000388 107.08839191 6.65099907 107.07855892 C10.87264926 107.07333381 15.09427935 107.06624288 19.31591797 107.05493164 C23.38779016 107.04408959 27.45964297 107.03809145 31.53152847 107.03549385 C33.08730499 107.03364199 34.64308042 107.03002592 36.19884872 107.02464104 C38.37298651 107.01741314 40.5470436 107.0163809 42.72119141 107.0168457 C43.96029266 107.01462509 45.19939392 107.01240448 46.4760437 107.01011658 C49.37402344 107.13037109 49.37402344 107.13037109 51.37402344 108.13037109 C51.37402344 117.04037109 51.37402344 125.95037109 51.37402344 135.13037109 C49.09824876 136.26825843 47.86368919 136.25379173 45.33712769 136.25062561 C44.07088058 136.25268761 44.07088058 136.25268761 42.77905273 136.25479126 C41.85116943 136.25119598 40.92328613 136.24760071 39.96728516 136.24389648 C38.50381149 136.24411552 38.50381149 136.24411552 37.01077271 136.24433899 C33.77506309 136.24364045 30.53941053 136.23585076 27.30371094 136.22802734 C25.064545 136.22616296 22.82537865 136.22473915 20.58621216 136.22373962 C14.68429443 136.21991608 8.7824012 136.21008716 2.88049316 136.19903564 C-3.13858712 136.18881804 -9.15767136 136.18424125 -15.17675781 136.17919922 C-26.99317484 136.16846477 -38.80957367 136.15139028 -50.62597656 136.13037109 C-52.55086988 132.88118218 -52.87535922 130.47497117 -52.87321472 126.72077942 C-52.87740921 125.62288589 -52.8816037 124.52499237 -52.88592529 123.39382935 C-52.88030579 122.19418549 -52.87468628 120.99454163 -52.86889648 119.75854492 C-52.87079483 118.49160294 -52.87269318 117.22466095 -52.87464905 115.91932678 C-52.87949218 112.44848471 -52.87184946 108.9777714 -52.861696 105.50694489 C-52.85291147 101.87724597 -52.854673 98.24755102 -52.85505676 94.61784363 C-52.85412061 88.52572474 -52.84544134 82.4336557 -52.83178711 76.34155273 C-52.81604096 69.28986223 -52.81078976 62.23822625 -52.81152266 55.18651944 C-52.81213205 48.40872362 -52.80703618 41.63094561 -52.79873085 34.85315514 C-52.79519293 31.96520537 -52.79336689 29.0772619 -52.79283714 26.18931007 C-52.79165021 22.16418485 -52.7819551 18.13912479 -52.77124023 14.11401367 C-52.77169342 12.90829712 -52.77214661 11.70258057 -52.77261353 10.46032715 C-52.76834854 9.3708931 -52.76408356 8.28145905 -52.75968933 7.15901184 C-52.75717556 5.73019039 -52.75717556 5.73019039 -52.75461102 4.27250385 C-52.62597656 2.13037109 -52.62597656 2.13037109 -51.62597656 1.13037109 C-48.64297655 0.87953059 -45.68572687 0.70298031 -42.69628906 0.57568359 C-41.24925095 0.5126152 -41.24925095 0.5126152 -39.77297974 0.44827271 C-26.52091818 -0.06399791 -13.25973003 -0.02038326 0 0 Z " fill="#1B4299" transform="translate(933.6259765625,929.86962890625)"/>
<path d="M0 0 C9.57 0 19.14 0 29 0 C30.65 4.29 32.3 8.58 34 13 C35.30676778 16.01813098 36.62740597 19.01326231 38 22 C38.74015876 23.63385403 39.47972142 25.26797821 40.21875 26.90234375 C41.3588075 29.419481 42.49945881 31.93631141 43.64453125 34.45117188 C45.89803401 39.43443312 48.01315231 44.45118266 50.02197266 49.5378418 C51.60656382 53.52700853 53.27048161 57.48221666 54.9375 61.4375 C55.28522461 62.2637085 55.63294922 63.08991699 55.99121094 63.94116211 C58.21898123 69.21220728 60.5369766 74.43228093 62.93359375 79.62890625 C64.31888304 82.70901834 65.55205926 85.83848052 66.7890625 88.98046875 C68.37822854 92.94313118 70.03081495 96.87767292 71.6875 100.8125 C72.02362305 101.61437744 72.35974609 102.41625488 72.70605469 103.24243164 C74.61039902 107.76856479 76.55685127 112.27210473 78.5546875 116.7578125 C78.97274658 117.70551514 79.39080566 118.65321777 79.8215332 119.62963867 C80.63604688 121.47259003 81.45982172 123.31148172 82.29370117 125.14575195 C82.66213135 125.98323975 83.03056152 126.82072754 83.41015625 127.68359375 C83.74152588 128.42150146 84.07289551 129.15940918 84.41430664 129.91967773 C85.09451528 132.33570851 84.81171807 133.65676335 84 136 C79.81935528 136.19844229 75.64123001 136.34321495 71.45727539 136.43945312 C70.0358912 136.47957871 68.61483514 136.53409912 67.19458008 136.60351562 C55.41607491 137.16459328 55.41607491 137.16459328 51.99975586 134.35498047 C50.66998042 132.27046762 49.7958355 130.33592202 49 128 C48.59652344 127.13632813 48.19304687 126.27265625 47.77734375 125.3828125 C47.36162109 124.26519531 47.36162109 124.26519531 46.9375 123.125 C46.62167969 122.29226563 46.30585937 121.45953125 45.98046875 120.6015625 C45.65691406 119.74304687 45.33335937 118.88453125 45 118 C43.91654712 115.34163109 42.82653936 112.68604951 41.734375 110.03125 C41 108 41 108 41 106 C23.18 106 5.36 106 -13 106 C-16.52049678 113.62774303 -19.36480681 119.9944523 -21.89453125 127.73828125 C-22.19746094 128.58777344 -22.50039063 129.43726563 -22.8125 130.3125 C-23.10769531 131.17488281 -23.40289062 132.03726562 -23.70703125 132.92578125 C-25 135 -25 135 -27.18115234 135.63720703 C-30.31642084 136.04072418 -33.23598548 136.01363095 -36.39453125 135.87890625 C-38.19760742 135.80639648 -38.19760742 135.80639648 -40.03710938 135.73242188 C-41.28298828 135.67634766 -42.52886719 135.62027344 -43.8125 135.5625 C-45.07771484 135.51029297 -46.34292969 135.45808594 -47.64648438 135.40429688 C-50.76458806 135.27486616 -53.88235178 135.13990871 -57 135 C-58 133 -58 133 -57.1875 130.4375 C-56 128 -56 128 -54 127 C-53.30348943 124.98011935 -52.61809767 122.95597696 -51.9765625 120.91796875 C-48.04479303 109.16984157 -43.00978583 97.57401893 -37.875 86.3125 C-35.92152081 81.97672911 -34.41560779 77.53637951 -33 73 C-32.34 73 -31.68 73 -31 73 C-30.82984375 72.3709375 -30.6596875 71.741875 -30.484375 71.09375 C-29.07444571 66.11399974 -27.44536335 61.61905938 -25.03125 57.046875 C-23.49660388 54.00083497 -22.29431768 50.84162737 -21.05078125 47.66796875 C-19.5792867 43.93179486 -18.03007772 40.23004719 -16.4765625 36.52734375 C-15.35841464 33.85621275 -14.25048417 31.18166666 -13.1484375 28.50390625 C-9.12722283 18.7830227 -4.8255356 9.34947522 0 0 Z M13 40 C10.94856868 43.97242482 9.18864106 47.93780011 7.625 52.125 C4.31718207 60.85285694 0.67636834 69.42180722 -3 78 C7.89 78 18.78 78 30 78 C27.525 72.06 27.525 72.06 25 66 C24.38125 64.246875 23.7625 62.49375 23.125 60.6875 C20.59760854 53.56485135 17.26917367 46.80465642 14 40 C13.67 40 13.34 40 13 40 Z " fill="#1B4299" transform="translate(499,930)"/>
<path d="M0 0 C9.57 0 19.14 0 29 0 C35.56503858 14.28183832 41.68756228 28.7152933 47.68188477 43.24316406 C50.55994748 50.20957356 53.47751502 57.13501071 56.63671875 63.97973633 C59.93263259 71.28162568 63.00158072 78.68562676 66.125 86.0625 C66.8800572 87.84394233 67.6351847 89.62535486 68.39038086 91.40673828 C69.52249433 94.07743038 70.65442948 96.7481971 71.78569031 99.41925049 C73.76008515 104.08017955 75.739643 108.73881153 77.72961426 113.39311218 C78.52705717 115.25826961 79.32288806 117.12411601 80.11865234 118.98999023 C81.06032093 121.19767284 82.00453728 123.40427098 82.95166016 125.60961914 C83.56533447 127.05195923 83.56533447 127.05195923 84.19140625 128.5234375 C84.54404541 129.34763184 84.89668457 130.17182617 85.26000977 131.02099609 C86 133 86 133 86 135 C75.44 135 64.88 135 54 135 C47.16923077 120.2 47.16923077 120.2 44.625 113.8125 C44.36589844 113.17248047 44.10679688 112.53246094 43.83984375 111.87304688 C42 107.25396825 42 107.25396825 42 105 C14.775 105.495 14.775 105.495 -13 106 C-16.57594478 114.79530013 -16.57594478 114.79530013 -20.15014648 123.59130859 C-20.59430908 124.68266113 -21.03847168 125.77401367 -21.49609375 126.8984375 C-21.95169678 128.01911621 -22.4072998 129.13979492 -22.87670898 130.29443359 C-23.53654266 131.8837135 -24.23042985 133.46085969 -25 135 C-35.23 135 -45.46 135 -56 135 C-55.21924202 130.31545213 -54.51243408 127.43700124 -52.65625 123.2578125 C-52.16092773 122.13068848 -51.66560547 121.00356445 -51.15527344 119.84228516 C-50.88710815 119.24023254 -50.61894287 118.63817993 -50.34265137 118.0178833 C-48.85434818 114.67464509 -47.39022958 111.32078494 -45.921875 107.96875 C-45.60631653 107.25006744 -45.29075806 106.53138489 -44.96563721 105.79092407 C-41.15475738 97.09977636 -37.45358006 88.36226901 -33.75 79.625 C-33.03399969 77.93739141 -32.31793482 76.2498102 -31.60180664 74.56225586 C-30.51121606 71.99203272 -29.42075989 69.42175295 -28.33070374 66.8513031 C-25.69673355 60.64021746 -23.05847841 54.43096437 -20.41796875 48.22265625 C-20.04086761 47.33592224 -19.66376648 46.44918823 -19.27523804 45.5355835 C-17.81584261 42.1039204 -16.3564412 38.67225992 -14.89660645 35.24078369 C-9.9043392 23.50501455 -4.94390256 11.75623653 0 0 Z M14 39 C9.79922908 47.5893812 6.17291694 56.37517336 2.625 65.25 C2.17205566 66.38171631 1.71911133 67.51343262 1.25244141 68.67944336 C-0.92435028 73.20862348 -0.92435028 73.20862348 -2 78 C8.89 78 19.78 78 31 78 C23.23303454 58.40293659 23.23303454 58.40293659 15 39 C14.67 39 14.34 39 14 39 Z " fill="#1B4299" transform="translate(56,930)"/>
<path d="M0 0 C8.39805072 -0.06991506 16.79597716 -0.12301976 25.1942482 -0.15543652 C29.09509915 -0.17100523 32.99574907 -0.19207974 36.89648438 -0.22631836 C40.67016285 -0.25922949 44.44364957 -0.27691889 48.21746063 -0.28463173 C49.64777387 -0.29011891 51.07807819 -0.30083163 52.50830841 -0.31719017 C67.72038326 -0.48405307 81.79211297 2.0162043 93.64453125 12.29296875 C103.92663913 23.01841794 107.58716165 35.73760146 107.3046875 50.31640625 C106.29884757 62.4767531 101.79336384 73.77846813 92.6796875 82.125 C78.92638558 92.3846979 64.0316618 94.26987366 47.4375 94.625 C39.7959375 94.810625 39.7959375 94.810625 32 95 C32 107.87 32 120.74 32 134 C27.79847627 134.84030475 24.8058773 135.0580706 20.60546875 134.87890625 C18.80239258 134.80639648 18.80239258 134.80639648 16.96289062 134.73242188 C15.71701172 134.67634766 14.47113281 134.62027344 13.1875 134.5625 C11.92228516 134.51029297 10.65707031 134.45808594 9.35351562 134.40429688 C6.23541194 134.27486616 3.11764822 134.13990871 0 134 C-0.80396406 130.46771473 -1.12551518 127.21041419 -1.12698364 123.59077454 C-1.12980347 122.51819397 -1.13262329 121.4456134 -1.13552856 120.3405304 C-1.13350433 119.17410507 -1.1314801 118.00767975 -1.12939453 116.8059082 C-1.13114685 115.56968719 -1.13289917 114.33346619 -1.13470459 113.05978394 C-1.13834749 109.67780061 -1.13749979 106.29587858 -1.1343255 102.91389871 C-1.13179098 99.37409143 -1.13414233 95.83428675 -1.13571167 92.29447937 C-1.13752945 86.3537855 -1.13513655 80.41310408 -1.13037109 74.47241211 C-1.12492171 67.59965499 -1.1266976 60.72692751 -1.1321975 53.8541711 C-1.1367308 47.95344835 -1.13737834 42.05273454 -1.13475883 36.15201062 C-1.13319822 32.62750747 -1.13299655 29.10301827 -1.13629532 25.57851601 C-1.13971196 21.65430161 -1.13498078 17.73012063 -1.12939453 13.8059082 C-1.13141876 12.63341019 -1.13344299 11.46091217 -1.13552856 10.25288391 C-1.13129883 8.65670227 -1.13129883 8.65670227 -1.12698364 7.02827454 C-1.12660662 6.10007054 -1.12622959 5.17186655 -1.12584114 4.21553516 C-1 2 -1 2 0 0 Z M32 28 C31.19015806 32.95152495 30.8821266 37.64952275 30.90234375 42.68359375 C30.9037587 43.38396255 30.90517365 44.08433136 30.90663147 44.80592346 C30.91217523 47.01649466 30.92471674 49.22696004 30.9375 51.4375 C30.94252229 52.94726415 30.94708391 54.45702991 30.95117188 55.96679688 C30.96212613 59.64456493 30.9793511 63.32227212 31 67 C35.145697 67.0879568 39.29115012 67.14071153 43.4375 67.1875 C44.60216797 67.21263672 45.76683594 67.23777344 46.96679688 67.26367188 C55.27200502 67.33385673 63.51875998 66.97904031 69.9375 61.0625 C70.75541016 60.33740234 70.75541016 60.33740234 71.58984375 59.59765625 C75.88806746 54.72792357 75.41357996 49.60440574 75.31640625 43.359375 C74.7961087 37.83522818 72.50276827 35.42367521 68.625 31.75 C63.68862174 28.45908116 59.14825566 27.75093343 53.2890625 27.8046875 C52.04511719 27.81113281 50.80117188 27.81757812 49.51953125 27.82421875 C47.59173828 27.84935547 47.59173828 27.84935547 45.625 27.875 C43.66240234 27.88853516 43.66240234 27.88853516 41.66015625 27.90234375 C38.4399163 27.92584915 35.22005293 27.95870913 32 28 Z " fill="#1B4299" transform="translate(679,931)"/>
<path d="M0 0 C0 44.55 0 89.1 0 135 C-9.9 135 -19.8 135 -30 135 C-30.33 101.01 -30.66 67.02 -31 32 C-41.395 34.475 -41.395 34.475 -52 37 C-55.37836722 29.11714315 -55.37836722 29.11714315 -56.16796875 25.921875 C-56.42416992 24.89320313 -56.42416992 24.89320313 -56.68554688 23.84375 C-56.93401367 22.80734375 -56.93401367 22.80734375 -57.1875 21.75 C-57.45336914 20.69039062 -57.45336914 20.69039062 -57.72460938 19.609375 C-58.44650093 16.66606424 -59 14.04198059 -59 11 C-54.30812364 9.38837301 -49.60322097 7.82557927 -44.88256836 6.30029297 C-43.28967004 5.77892295 -41.70051106 5.24594071 -40.1159668 4.69970703 C-25.89414379 -0.18748621 -15.9065799 0 0 0 Z " fill="#1B4299" transform="translate(1280,930)"/>
<path d="M0 0 C19.8 0 39.6 0 60 0 C61.12694809 7.8886366 61.12694809 7.8886366 61.1328125 11.98828125 C61.13474609 13.29442383 61.13474609 13.29442383 61.13671875 14.62695312 C61.13285156 15.51318359 61.12898438 16.39941406 61.125 17.3125 C61.13080078 18.67084961 61.13080078 18.67084961 61.13671875 20.05664062 C61.13542969 20.92095703 61.13414063 21.78527344 61.1328125 22.67578125 C61.13168457 23.45864502 61.13055664 24.24150879 61.12939453 25.0480957 C61 27 61 27 60 29 C40.2 29 20.4 29 0 29 C0 19.43 0 9.86 0 0 Z " fill="#1B4299" transform="translate(1078,991)"/>
<path d="" fill="#214296" transform="translate(0,0)"/>
<path d="" fill="#214296" transform="translate(0,0)"/>
<path d="" fill="#214296" transform="translate(0,0)"/>
<path d="" fill="#214296" transform="translate(0,0)"/>
<path d="" fill="#214296" transform="translate(0,0)"/>
<path d="" fill="#214296" transform="translate(0,0)"/>
<path d="" fill="#214296" transform="translate(0,0)"/>
<path d="" fill="#214296" transform="translate(0,0)"/>
<path d="" fill="#214296" transform="translate(0,0)"/>
<path d="" fill="#214296" transform="translate(0,0)"/>
<path d="" fill="#214296" transform="translate(0,0)"/>
<path d="" fill="#214296" transform="translate(0,0)"/>
<path d="" fill="#214296" transform="translate(0,0)"/>
<path d="" fill="#214296" transform="translate(0,0)"/>
<path d="" fill="#214296" transform="translate(0,0)"/>
<path d="" fill="#214296" transform="translate(0,0)"/>
<path d="" fill="#214296" transform="translate(0,0)"/>
<path d="" fill="#214296" transform="translate(0,0)"/>
<path d="" fill="#214296" transform="translate(0,0)"/>
<path d="" fill="#214296" transform="translate(0,0)"/>
<path d="" fill="#214296" transform="translate(0,0)"/>
<path d="" fill="#214296" transform="translate(0,0)"/>
<path d="" fill="#214296" transform="translate(0,0)"/>
<path d="" fill="#214296" transform="translate(0,0)"/>
<path d="" fill="#214296" transform="translate(0,0)"/>
</svg>
