<svg xmlns="http://www.w3.org/2000/svg" version="1.0" viewBox="0.4 0.26 1279.6 1066.54"> <path fill="#1b439a" d="   M 546.89 261.81   Q 430.84 465.25 273.11 742.02   Q 263.59 758.72 258.76 764.25   Q 249.87 774.41 238.46 781.18   C 188.24 810.97 124.85 782.00 114.05 724.97   Q 110.04 703.77 116.93 683.27   Q 119.39 675.98 127.97 660.93   Q 416.48 154.99 479.08 45.10   C 488.71 28.19 502.97 16.26 520.38 7.93   C 552.68 -7.52 590.45 0.89 613.26 28.46   Q 620.95 37.76 626.72 50.14   Q 630.15 57.51 632.52 62.21   Q 803.79 401.67 940.37 672.62   C 956.98 705.58 949.26 747.22 923.69 773.57   Q 905.56 792.26 880.54 797.28   C 846.32 804.14 812.36 787.02 796.63 755.87   Q 676.97 518.83 547.40 261.82   A 0.29 0.29 0.0 0 0 546.89 261.81   Z"></path> <path fill="#1b439a" d="   M 1002.14 245.23   Q 966.35 292.57 924.45 347.96   Q 920.52 353.15 915.27 357.25   C 891.50 375.80 859.21 374.87 836.96 354.04   C 817.19 335.52 812.95 305.29 826.23 281.71   Q 827.98 278.61 838.84 264.25   Q 1003.90 46.12 1008.93 39.26   Q 1017.89 27.05 1023.65 22.24   C 1057.29 -5.88 1109.17 10.99 1119.73 54.20   Q 1121.44 61.23 1121.27 79.45   Q 1121.16 91.00 1121.22 732.50   C 1121.22 773.93 1078.33 803.26 1039.54 787.27   C 1020.95 779.61 1007.40 763.42 1003.51 743.53   Q 1002.45 738.10 1002.45 725.91   Q 1002.45 532.15 1002.46 245.33   A 0.18 0.17 -26.9 0 0 1002.14 245.23   Z"></path> <path fill="#dd2125" d="   M 961.04 518.67   L 912.04 528.07   A 20.79 20.79 0.0 0 1 889.85 517.58   L 852.54 448.89   A 20.79 20.79 0.0 0 1 868.88 418.27   L 951.26 410.60   A 20.79 20.79 0.0 0 1 973.94 430.08   L 977.88 497.03   A 20.79 20.79 0.0 0 1 961.04 518.67   Z"></path> <path fill="#dd2125" d="   M 581.11 538.11   Q 603.88 516.24 617.22 505.94   C 625.17 499.80 635.31 500.15 642.81 506.81   Q 645.06 508.80 647.88 513.42   Q 665.37 542.01 684.89 573.77   Q 689.24 580.86 689.88 584.73   C 691.47 594.49 686.16 604.35 676.53 607.75   Q 660.66 613.36 638.62 620.59   C 634.04 622.09 628.14 624.79 623.77 627.29   Q 608.10 636.23 595.14 647.15   Q 572.81 665.96 552.28 688.79   Q 523.07 721.25 495.60 758.08   Q 493.66 760.69 489.74 763.07   C 481.42 768.12 471.92 765.67 467.62 756.80   C 466.13 753.74 466.30 748.75 466.76 744.72   Q 470.62 711.21 483.45 678.95   C 498.14 642.03 519.18 608.36 544.09 578.34   Q 563.22 555.29 581.11 538.11   Z"></path> <path fill="#1b439a" d="   M 291.95 988.17   A 0.35 0.35 0.0 0 1 292.30 987.82   L 349.35 987.82   A 0.51 0.51 0.0 0 1 349.86 988.33   L 349.86 1044.99   A 1.27 1.27 0.0 0 1 349.41 1045.96   C 329.39 1062.82 303.25 1070.23 277.46 1065.30   C 244.58 1059.01 223.77 1032.85 223.16 999.56   C 222.46 961.12 251.35 930.68 289.74 929.29   C 310.62 928.53 329.13 933.38 344.62 947.04   A 0.67 0.66 40.9 0 1 344.69 947.96   L 326.98 969.34   A 0.59 0.59 0.0 0 1 326.14 969.40   C 314.43 959.08 300.08 954.26 285.02 956.99   Q 275.17 958.77 267.26 966.07   C 243.02 988.43 252.30 1034.40 287.45 1039.51   Q 305.11 1042.07 320.86 1032.70   A 1.10 1.09 -15.5 0 0 321.40 1031.76   L 321.40 1013.64   A 0.47 0.47 0.0 0 0 320.93 1013.17   L 292.50 1013.17   A 0.55 0.55 0.0 0 1 291.95 1012.62   L 291.95 988.17   Z"></path> <path fill="#1b439a" d="   M 57.51 930.50   L 83.93 930.50   A 0.46 0.46 0.0 0 1 84.35 930.78   L 140.98 1063.82   A 0.46 0.46 0.0 0 1 140.55 1064.46   L 111.14 1064.46   A 0.46 0.46 0.0 0 1 110.72 1064.18   L 98.28 1034.96   A 0.46 0.46 0.0 0 0 97.86 1034.68   L 42.82 1034.68   A 0.46 0.46 0.0 0 0 42.40 1034.96   L 29.96 1064.18   A 0.46 0.46 0.0 0 1 29.54 1064.46   L 0.87 1064.46   A 0.46 0.46 0.0 0 1 0.44 1063.82   L 57.09 930.78   A 0.46 0.46 0.0 0 1 57.51 930.50   Z   M 52.98 1008.21   A 0.34 0.34 0.0 0 0 53.29 1008.68   L 87.39 1008.68   A 0.34 0.34 0.0 0 0 87.70 1008.21   L 70.65 966.58   A 0.34 0.34 0.0 0 0 70.03 966.58   L 52.98 1008.21   Z"></path> <path fill="#1b439a" d="   M 442.95 1064.37   A 0.36 0.36 0.0 0 1 442.62 1063.87   L 499.18 931.09   A 0.85 0.84 11.6 0 1 499.96 930.58   L 525.73 930.58   A 1.00 1.00 0.0 0 1 526.65 931.19   L 583.09 1063.86   A 0.40 0.39 78.5 0 1 582.73 1064.41   L 553.25 1064.40   A 0.87 0.87 0.0 0 1 552.44 1063.85   L 540.79 1035.17   A 0.83 0.83 0.0 0 0 540.02 1034.65   L 485.04 1034.64   A 0.91 0.90 -78.9 0 0 484.20 1035.21   L 472.49 1063.99   A 0.64 0.63 -79.1 0 1 471.90 1064.38   L 442.95 1064.37   Z   M 495.08 1008.20   A 0.37 0.37 0.0 0 0 495.43 1008.71   L 529.57 1008.71   A 0.37 0.37 0.0 0 0 529.92 1008.20   L 512.84 966.56   A 0.37 0.37 0.0 0 0 512.16 966.56   L 495.08 1008.20   Z"></path> <path fill="#1b439a" d="   M 1280.00 930.44   L 1280.00 1064.37   L 1251.55 1064.26   A 0.52 0.52 0.0 0 1 1251.04 1063.74   L 1251.04 960.89   A 0.58 0.58 0.0 0 0 1250.32 960.33   L 1228.47 965.89   A 0.57 0.57 0.0 0 1 1227.78 965.48   L 1221.92 942.45   A 0.58 0.58 0.0 0 1 1222.31 941.76   L 1258.99 930.81   A 5.82 5.81 36.3 0 1 1260.71 930.55   L 1280.00 930.44   Z"></path> <path fill="#1b439a" d="   M 708.96 1025.33   L 708.96 1063.94   A 0.47 0.47 0.0 0 1 708.49 1064.41   L 680.41 1064.41   A 0.65 0.65 0.0 0 1 679.76 1063.76   L 679.76 931.93   A 0.35 0.35 0.0 0 1 680.11 931.58   Q 713.02 931.40 736.25 931.57   C 757.92 931.73 777.38 942.42 783.32 964.22   C 785.69 972.95 785.56 984.43 782.75 993.04   C 775.56 1015.12 753.91 1024.61 731.77 1024.61   Q 710.12 1024.61 709.68 1024.61   A 0.72 0.71 -89.6 0 0 708.96 1025.33   Z   M 708.81 958.73   L 709.09 997.89   A 0.62 0.62 0.0 0 0 709.71 998.51   L 734.51 998.33   A 20.82 18.87 -0.4 0 0 755.20 979.32   L 755.18 976.66   A 20.82 18.87 -0.4 0 0 734.23 957.93   L 709.43 958.11   A 0.62 0.62 0.0 0 0 708.81 958.73   Z"></path> <path fill="#1b439a" d="   M 973.61 1010.49   L 912.16 1010.49   A 0.61 0.61 0.0 0 0 911.55 1011.10   L 911.55 1037.71   A 0.61 0.61 0.0 0 0 912.16 1038.32   L 983.09 1038.32   A 0.61 0.61 0.0 0 1 983.70 1038.93   L 983.70 1063.81   A 0.61 0.61 0.0 0 1 983.09 1064.42   L 883.04 1064.42   A 0.61 0.61 0.0 0 1 882.43 1063.81   L 882.43 932.14   A 0.61 0.61 0.0 0 1 883.04 931.53   L 982.14 931.53   A 0.61 0.61 0.0 0 1 982.75 932.14   L 982.75 956.92   A 0.61 0.61 0.0 0 1 982.14 957.53   L 912.16 957.53   A 0.61 0.61 0.0 0 0 911.55 958.14   L 911.55 983.87   A 0.61 0.61 0.0 0 0 912.16 984.48   L 973.61 984.48   A 0.61 0.61 0.0 0 1 974.22 985.09   L 974.22 1009.88   A 0.61 0.61 0.0 0 1 973.61 1010.49   Z"></path> <rect fill="#1b439a" x="1079.08" y="991.68" width="58.58" height="27.76" rx="0.50"></rect> </svg>