<svg width="58" height="58" viewBox="0 0 58 58" fill="none" xmlns="http://www.w3.org/2000/svg">
<path d="M43.7467 23.9053C46.4179 23.9054 48.5836 26.071 48.5836 28.7422C48.5836 29.8063 48.2383 30.7892 47.6559 31.5879L49.8658 33.7988L48.4098 35.2549L46.1139 32.959C45.414 33.3527 44.607 33.5791 43.7467 33.5791C41.0755 33.5791 38.9099 31.4134 38.9098 28.7422C38.9098 26.0709 41.0754 23.9053 43.7467 23.9053ZM43.7467 25.8701C42.1606 25.8701 40.8746 27.1561 40.8746 28.7422C40.8747 30.3282 42.1607 31.6143 43.7467 31.6143C45.3326 31.6142 46.6187 30.3281 46.6188 28.7422C46.6188 27.1562 45.3327 25.8702 43.7467 25.8701Z" fill="#FEC324"/>
<path d="M0 23.2908H2.44231V32.6365H0V23.2908Z" fill="black"/>
<path d="M9.02637 25.3306C9.81823 25.3306 10.4499 25.5794 10.9215 26.0771C11.4019 26.5749 11.6422 27.2459 11.6422 28.0903V32.6365H9.27994V28.7702C9.27994 28.3614 9.16872 28.0414 8.94629 27.8103C8.72386 27.5703 8.4258 27.4503 8.05211 27.4503C7.66063 27.4592 7.33587 27.5881 7.07785 27.837C6.82873 28.0858 6.68192 28.4147 6.63743 28.8235V32.6365H4.26185V25.4239H6.63743V26.5971C6.89546 26.1794 7.22466 25.8638 7.62504 25.6505C8.03431 25.4372 8.50142 25.3306 9.02637 25.3306Z" fill="black"/>
<path d="M17.9525 32.2632C17.6856 32.4143 17.3787 32.5343 17.0317 32.6232C16.6847 32.7032 16.3332 32.7431 15.9773 32.7431C15.2655 32.7431 14.6872 32.5387 14.2423 32.1299C13.8064 31.721 13.5884 31.1566 13.5884 30.4367V27.3437H12.5874V25.7705H13.5884V23.7707H15.9506V25.7705H17.8191V27.3437H15.9506V30.0634C15.9506 30.57 16.1597 30.8233 16.5779 30.8233C16.8359 30.8233 17.1429 30.7433 17.4988 30.5834L17.9525 32.2632Z" fill="black"/>
<path d="M22.2178 25.3439C23.3923 25.3439 24.2953 25.6905 24.9271 26.3838C25.5588 27.077 25.8746 28.0281 25.8746 29.2368C25.8746 29.4235 25.8702 29.5657 25.8613 29.6635H20.8432C20.9589 30.0723 21.159 30.3878 21.4438 30.61C21.7285 30.8233 22.0755 30.93 22.4847 30.93C22.7961 30.93 23.0942 30.8678 23.3789 30.7433C23.6725 30.6189 23.9395 30.4367 24.1797 30.1967L25.4209 31.4366C25.0472 31.8543 24.5934 32.1743 24.0596 32.3965C23.5346 32.6098 22.9385 32.7165 22.2712 32.7165C21.4971 32.7165 20.8209 32.5654 20.2426 32.2632C19.6643 31.961 19.2194 31.5344 18.908 30.9833C18.6055 30.4323 18.4543 29.7923 18.4543 29.0635C18.4543 28.3258 18.61 27.677 18.9214 27.117C19.2328 26.5482 19.6732 26.1127 20.2426 25.8105C20.812 25.4994 21.4704 25.3439 22.2178 25.3439ZM23.5658 28.3969C23.5658 27.9792 23.4412 27.6459 23.1921 27.397C22.9519 27.1393 22.6315 27.0104 22.2312 27.0104C21.8575 27.0104 21.5416 27.1348 21.2836 27.3837C21.0345 27.6325 20.8699 27.9703 20.7898 28.3969H23.5658Z" fill="black"/>
<path d="M27.1497 22.7441H29.5253V32.6365H27.1497V22.7441Z" fill="black"/>
<path d="M36.0677 28.0503C35.7296 27.5526 35.2581 27.3037 34.653 27.3037C34.226 27.3037 33.879 27.4681 33.6121 27.797C33.3451 28.1169 33.2117 28.5347 33.2117 29.0502C33.2117 29.5746 33.3451 29.9968 33.6121 30.3167C33.879 30.6367 34.226 30.7967 34.653 30.7967C35.3114 30.7967 35.783 30.5256 36.0677 29.9834L37.816 30.9833C37.5313 31.5344 37.1043 31.961 36.5348 32.2632C35.9654 32.5654 35.2981 32.7165 34.5329 32.7165C33.7944 32.7165 33.1449 32.5654 32.5844 32.2632C32.0239 31.961 31.5879 31.5344 31.2765 30.9833C30.974 30.4323 30.8227 29.7923 30.8227 29.0635C30.8227 28.3258 30.9784 27.677 31.2899 27.117C31.6013 26.5482 32.0372 26.1127 32.5978 25.8105C33.1672 25.4994 33.8211 25.3439 34.5596 25.3439C35.2803 25.3439 35.9209 25.495 36.4814 25.7972C37.042 26.0905 37.4779 26.5082 37.7893 27.0504L36.0677 28.0503Z" fill="black"/>
<path d="M55.3842 25.3306C56.176 25.3306 56.8078 25.5794 57.2793 26.0771C57.7598 26.5749 58 27.2459 58 28.0903V32.6365H55.6378V28.7702C55.6378 28.3614 55.5265 28.0414 55.3041 27.8103C55.0817 27.5703 54.7836 27.4503 54.4099 27.4503C54.0184 27.4592 53.6937 27.5881 53.4357 27.837C53.1866 28.0858 53.0397 28.4147 52.9953 28.8235V32.6365H50.6197V25.4239H52.9953V26.5971C53.2533 26.1794 53.5825 25.8638 53.9829 25.6505C54.3921 25.4372 54.8592 25.3306 55.3842 25.3306Z" fill="black"/>
</svg>
